mtllib Defibrillator.mtl
o Defibrillator
v 0.25000 0.00000 0.15000
v 0.25000 0.12000 0.15000
v 0.25000 0.00000 -0.15000
v 0.25000 0.12000 -0.15000
v -0.25000 0.00000 0.15000
v -0.25000 0.12000 0.15000
v -0.25000 0.00000 -0.15000
v -0.25000 0.12000 -0.15000
v 0.16500 0.12000 0.01750
v 0.16500 0.17000 0.01750
v 0.16500 0.12000 -0.01750
v 0.16500 0.17000 -0.01750
v 0.13500 0.12000 0.01750
v 0.13500 0.17000 0.01750
v 0.13500 0.12000 -0.01750
v 0.13500 0.17000 -0.01750
v -0.13500 0.12000 0.01750
v -0.13500 0.17000 0.01750
v -0.13500 0.12000 -0.01750
v -0.13500 0.17000 -0.01750
v -0.16500 0.12000 0.01750
v -0.16500 0.17000 0.01750
v -0.16500 0.12000 -0.01750
v -0.16500 0.17000 -0.01750
v 0.17000 0.17500 0.01750
v 0.17000 0.20500 0.01750
v 0.17000 0.17500 -0.01750
v 0.17000 0.20500 -0.01750
v -0.17000 0.17500 0.01750
v -0.17000 0.20500 0.01750
v -0.17000 0.17500 -0.01750
v -0.17000 0.20500 -0.01750
v 0.03300 0.08500 -0.00000
v -0.02200 0.08500 -0.00000
v -0.00000 0.04700 -0.00000
v -0.03900 0.04700 -0.00000
v 0.03900 0.02100 -0.00000
v 0.01100 0.04200 -0.00000
v 0.05000 0.04200 -0.00000
v 0.03300 0.08500 0.15100
v -0.02200 0.08500 0.15100
v -0.00000 0.04700 0.15100
v -0.03900 0.04700 0.15100
v 0.03900 0.02100 0.15100
v 0.01100 0.04200 0.15100
v 0.05000 0.04200 0.15100
v 0.03300 0.08500 0.15300
v -0.02200 0.08500 0.15300
v -0.00000 0.04700 0.15300
v -0.03900 0.04700 0.15300
v 0.03900 0.02100 0.15300
v 0.01100 0.04200 0.15300
v 0.05000 0.04200 0.15300
usemtl DarkGreyMetal
f 3 4 2 1
f 7 8 4 3
f 5 6 8 7
f 1 2 6 5
f 1 5 7 3
f 6 2 4 8
f 11 12 10 9
f 15 16 12 11
f 13 14 16 15
f 9 10 14 13
f 9 13 15 11
f 14 10 12 16
f 19 20 18 17
f 23 24 20 19
f 21 22 24 23
f 17 18 22 21
f 17 21 23 19
f 22 18 20 24
f 27 28 26 25
f 31 32 28 27
f 29 30 32 31
f 25 26 30 29
f 25 29 31 27
f 30 26 28 32
usemtl WarningYellow
f 46 45 44 43 42 41 40
f 48 49 47
f 41 48 47 40
f 42 49 48 41
f 43 50 49 42
f 44 51 50 43
f 45 52 51 44
f 46 53 52 45
f 40 47 53 46
