mtllib Detector.mtl
o Detector
usemtl BlackMetal
v -0.00000 0.05000 -0.05000
v -0.00000 0.55000 -0.05000
v -0.03536 0.05000 -0.03536
v -0.03536 0.55000 -0.03536
v -0.05000 0.05000 -0.00000
v -0.05000 0.55000 -0.00000
v -0.03536 0.05000 0.03536
v -0.03536 0.55000 0.03536
v -0.00000 0.05000 0.05000
v -0.00000 0.55000 0.05000
v 0.03536 0.05000 0.03536
v 0.03536 0.55000 0.03536
v 0.05000 0.05000 -0.00000
v 0.05000 0.55000 -0.00000
v 0.03536 0.05000 -0.03536
v 0.03536 0.55000 -0.03536
v -0.00000 0.60000 -0.00000
v -0.00000 0.57500 -0.04330
v -0.00000 0.52500 -0.04330
v -0.00000 0.50000 -0.00000
v -0.03062 0.57500 -0.03062
v -0.03062 0.52500 -0.03062
v -0.04330 0.57500 -0.00000
v -0.04330 0.52500 -0.00000
v -0.03062 0.57500 0.03062
v -0.03062 0.52500 0.03062
v -0.00000 0.57500 0.04330
v -0.00000 0.52500 0.04330
v 0.03062 0.57500 0.03062
v 0.03062 0.52500 0.03062
v 0.04330 0.57500 -0.00000
v 0.04330 0.52500 -0.00000
v 0.03062 0.57500 -0.03062
v 0.03062 0.52500 -0.03062
v -0.00000 0.10000 -0.00000
v -0.00000 0.07500 -0.04330
v -0.00000 0.02500 -0.04330
v -0.00000 0.00000 -0.00000
v -0.03062 0.07500 -0.03062
v -0.03062 0.02500 -0.03062
v -0.04330 0.07500 -0.00000
v -0.04330 0.02500 -0.00000
v -0.03062 0.07500 0.03062
v -0.03062 0.02500 0.03062
v -0.00000 0.07500 0.04330
v -0.00000 0.02500 0.04330
v 0.03062 0.07500 0.03062
v 0.03062 0.02500 0.03062
v 0.04330 0.07500 -0.00000
v 0.04330 0.02500 -0.00000
v 0.03062 0.07500 -0.03062
v 0.03062 0.02500 -0.03062
v -0.04800 0.14000 0.00500
v -0.04800 0.01000 0.00500
v -0.17000 0.00000 0.00500
v -0.04800 0.14000 -0.00500
v -0.04800 0.01000 -0.00500
v -0.17000 0.00000 -0.00500
v -0.00500 0.14000 -0.04800
v -0.00500 0.01000 -0.04800
v -0.00500 0.00000 -0.17000
v 0.00500 0.14000 -0.04800
v 0.00500 0.01000 -0.04800
v 0.00500 0.00000 -0.17000
v 0.04800 0.14000 -0.00500
v 0.04800 0.01000 -0.00500
v 0.17000 0.00000 -0.00500
v 0.04800 0.14000 0.00500
v 0.04800 0.01000 0.00500
v 0.17000 0.00000 0.00500
v 0.00500 0.14000 0.04800
v 0.00500 0.01000 0.04800
v 0.00500 0.00000 0.17000
v -0.00500 0.14000 0.04800
v -0.00500 0.01000 0.04800
v -0.00500 0.00000 0.17000
v -0.00000 0.60000 -0.01200
v -0.00000 0.72000 -0.00200
v -0.01039 0.60000 -0.00600
v -0.00173 0.72000 -0.00100
v -0.01039 0.60000 0.00600
v -0.00173 0.72000 0.00100
v -0.00000 0.60000 0.01200
v -0.00000 0.72000 0.00200
v 0.01039 0.60000 0.00600
v 0.00173 0.72000 0.00100
v 0.01039 0.60000 -0.00600
v 0.00173 0.72000 -0.00100
f 3 4 2 1
f 5 6 4 3
f 7 8 6 5
f 9 10 8 7
f 11 12 10 9
f 13 14 12 11
f 6 8 10 12 14 16 2 4
f 15 16 14 13
f 1 2 16 15
f 15 13 11 9 7 5 3 1
f 22 19 20
f 22 21 18 19
f 21 17 18
f 24 22 20
f 24 23 21 22
f 23 17 21
f 26 24 20
f 26 25 23 24
f 25 17 23
f 28 26 20
f 28 27 25 26
f 27 17 25
f 30 28 20
f 30 29 27 28
f 29 17 27
f 32 30 20
f 32 31 29 30
f 31 17 29
f 34 32 20
f 34 33 31 32
f 33 17 31
f 19 34 20
f 19 18 33 34
f 18 17 33
f 40 37 38
f 40 39 36 37
f 39 35 36
f 42 40 38
f 42 41 39 40
f 41 35 39
f 44 42 38
f 44 43 41 42
f 43 35 41
f 46 44 38
f 46 45 43 44
f 45 35 43
f 48 46 38
f 48 47 45 46
f 47 35 45
f 50 48 38
f 50 49 47 48
f 49 35 47
f 52 50 38
f 52 51 49 50
f 51 35 49
f 37 52 38
f 37 36 51 52
f 36 35 51
f 55 54 53
f 56 57 58
f 54 57 56 53
f 55 58 57 54
f 53 56 58 55
f 61 60 59
f 62 63 64
f 60 63 62 59
f 61 64 63 60
f 59 62 64 61
f 67 66 65
f 68 69 70
f 66 69 68 65
f 67 70 69 66
f 65 68 70 67
f 73 72 71
f 74 75 76
f 72 75 74 71
f 73 76 75 72
f 71 74 76 73
f 79 80 78 77
f 81 82 80 79
f 83 84 82 81
f 85 86 84 83
f 82 84 86 88 78 80
f 87 88 86 85
f 77 78 88 87
f 87 85 83 81 79 77
