mtllib Beacon.mtl
o Beacon
usemtl BlackMetal
v 0.03000 0.00000 0.03000
v 0.03000 0.06000 0.03000
v 0.03000 0.00000 -0.03000
v 0.03000 0.06000 -0.03000
v -0.03000 0.00000 0.03000
v -0.03000 0.06000 0.03000
v -0.03000 0.00000 -0.03000
v -0.03000 0.06000 -0.03000
v -0.00000 0.06000 -0.00800
v -0.00000 0.40000 -0.00800
v -0.00693 0.06000 -0.00400
v -0.00693 0.40000 -0.00400
v -0.00693 0.06000 0.00400
v -0.00693 0.40000 0.00400
v -0.00000 0.06000 0.00800
v -0.00000 0.40000 0.00800
v 0.00693 0.06000 0.00400
v 0.00693 0.40000 0.00400
v 0.00693 0.06000 -0.00400
v 0.00693 0.40000 -0.00400
v -0.01000 0.36000 -0.00400
v -0.10000 0.36000 -0.00400
v -0.01000 0.35654 -0.00200
v -0.10000 0.35654 -0.00200
v -0.01000 0.35654 0.00200
v -0.10000 0.35654 0.00200
v -0.01000 0.36000 0.00400
v -0.10000 0.36000 0.00400
v -0.01000 0.36346 0.00200
v -0.10000 0.36346 0.00200
v -0.01000 0.36346 -0.00200
v -0.10000 0.36346 -0.00200
v 0.00400 0.36000 -0.01000
v 0.00400 0.36000 -0.10000
v 0.00200 0.35654 -0.01000
v 0.00200 0.35654 -0.10000
v -0.00200 0.35654 -0.01000
v -0.00200 0.35654 -0.10000
v -0.00400 0.36000 -0.01000
v -0.00400 0.36000 -0.10000
v -0.00200 0.36346 -0.01000
v -0.00200 0.36346 -0.10000
v 0.00200 0.36346 -0.01000
v 0.00200 0.36346 -0.10000
v 0.01000 0.36000 0.00400
v 0.10000 0.36000 0.00400
v 0.01000 0.35654 0.00200
v 0.10000 0.35654 0.00200
v 0.01000 0.35654 -0.00200
v 0.10000 0.35654 -0.00200
v 0.01000 0.36000 -0.00400
v 0.10000 0.36000 -0.00400
v 0.01000 0.36346 -0.00200
v 0.10000 0.36346 -0.00200
v 0.01000 0.36346 0.00200
v 0.10000 0.36346 0.00200
v -0.00400 0.36000 0.01000
v -0.00400 0.36000 0.10000
v -0.00200 0.35654 0.01000
v -0.00200 0.35654 0.10000
v 0.00200 0.35654 0.01000
v 0.00200 0.35654 0.10000
v 0.00400 0.36000 0.01000
v 0.00400 0.36000 0.10000
v 0.00200 0.36346 0.01000
v 0.00200 0.36346 0.10000
v -0.00200 0.36346 0.01000
v -0.00200 0.36346 0.10000
f 3 4 2 1
f 7 8 4 3
f 5 6 8 7
f 1 2 6 5
f 1 5 7 3
f 6 2 4 8
f 11 12 10 9
f 13 14 12 11
f 15 16 14 13
f 17 18 16 15
f 14 16 18 20 10 12
f 19 20 18 17
f 9 10 20 19
f 19 17 15 13 11 9
f 23 24 22 21
f 25 26 24 23
f 27 28 26 25
f 29 30 28 27
f 26 28 30 32 22 24
f 31 32 30 29
f 21 22 32 31
f 31 29 27 25 23 21
f 35 36 34 33
f 37 38 36 35
f 39 40 38 37
f 41 42 40 39
f 38 40 42 44 34 36
f 43 44 42 41
f 33 34 44 43
f 43 41 39 37 35 33
f 47 48 46 45
f 49 50 48 47
f 51 52 50 49
f 53 54 52 51
f 50 52 54 56 46 48
f 55 56 54 53
f 45 46 56 55
f 55 53 51 49 47 45
f 59 60 58 57
f 61 62 60 59
f 63 64 62 61
f 65 66 64 63
f 62 64 66 68 58 60
f 67 68 66 65
f 57 58 68 67
f 67 65 63 61 59 57
