mtllib MedInjector.mtl
o MedInjector
v 0.05000 0.00000 -0.01500
v -0.05000 -0.00000 -0.01500
v 0.05000 -0.01061 -0.01061
v -0.05000 -0.01061 -0.01061
v 0.05000 -0.01500 -0.00000
v -0.05000 -0.01500 -0.00000
v 0.05000 -0.01061 0.01061
v -0.05000 -0.01061 0.01061
v 0.05000 0.00000 0.01500
v -0.05000 -0.00000 0.01500
v 0.05000 0.01061 0.01061
v -0.05000 0.01061 0.01061
v 0.05000 0.01500 -0.00000
v -0.05000 0.01500 -0.00000
v 0.05000 0.01061 -0.01061
v -0.05000 0.01061 -0.01061
v -0.05000 0.00000 -0.00400
v -0.08500 -0.00000 -0.00100
v -0.05000 -0.00346 -0.00200
v -0.08500 -0.00087 -0.00050
v -0.05000 -0.00346 0.00200
v -0.08500 -0.00087 0.00050
v -0.05000 0.00000 0.00400
v -0.08500 -0.00000 0.00100
v -0.05000 0.00346 0.00200
v -0.08500 0.00087 0.00050
v -0.05000 0.00346 -0.00200
v -0.08500 0.00087 -0.00050
v 0.05600 0.00000 -0.01100
v 0.05000 -0.00000 -0.01100
v 0.05600 -0.00778 -0.00778
v 0.05000 -0.00778 -0.00778
v 0.05600 -0.01100 -0.00000
v 0.05000 -0.01100 -0.00000
v 0.05600 -0.00778 0.00778
v 0.05000 -0.00778 0.00778
v 0.05600 0.00000 0.01100
v 0.05000 -0.00000 0.01100
v 0.05600 0.00778 0.00778
v 0.05000 0.00778 0.00778
v 0.05600 0.01100 -0.00000
v 0.05000 0.01100 -0.00000
v 0.05600 0.00778 -0.00778
v 0.05000 0.00778 -0.00778
v 0.00600 0.00000 -0.01900
v -0.00600 -0.00000 -0.01900
v 0.00600 -0.01344 -0.01344
v -0.00600 -0.01344 -0.01344
v 0.00600 -0.01900 -0.00000
v -0.00600 -0.01900 -0.00000
v 0.00600 -0.01344 0.01344
v -0.00600 -0.01344 0.01344
v 0.00600 0.00000 0.01900
v -0.00600 -0.00000 0.01900
v 0.00600 0.01344 0.01344
v -0.00600 0.01344 0.01344
v 0.00600 0.01900 -0.00000
v -0.00600 0.01900 -0.00000
v 0.00600 0.01344 -0.01344
v -0.00600 0.01344 -0.01344
usemtl PlasticWhite
f 3 4 2 1
f 5 6 4 3
f 7 8 6 5
f 9 10 8 7
f 11 12 10 9
f 13 14 12 11
f 6 8 10 12 14 16 2 4
f 15 16 14 13
f 1 2 16 15
f 15 13 11 9 7 5 3 1
f 19 20 18 17
f 21 22 20 19
f 23 24 22 21
f 25 26 24 23
f 22 24 26 28 18 20
f 27 28 26 25
f 17 18 28 27
f 27 25 23 21 19 17
usemtl PlasticRed
f 31 32 30 29
f 33 34 32 31
f 35 36 34 33
f 37 38 36 35
f 39 40 38 37
f 41 42 40 39
f 34 36 38 40 42 44 30 32
f 43 44 42 41
f 29 30 44 43
f 43 41 39 37 35 33 31 29
usemtl PlasticGreen
f 47 48 46 45
f 49 50 48 47
f 51 52 50 49
f 53 54 52 51
f 55 56 54 53
f 57 58 56 55
f 50 52 54 56 58 60 46 48
f 59 60 58 57
f 45 46 60 59
f 59 57 55 53 51 49 47 45
