mtllib SkyCarrier.mtl
o SkyCarrierBody
usemtl BlackMetal
v 60.0000 0.0000 -10.0000
v -60.0000 -0.0000 -10.0000
v 60.0000 -7.0711 -7.0711
v -60.0000 -7.0711 -7.0711
v 60.0000 -10.0000 -0.0000
v -60.0000 -10.0000 -0.0000
v 60.0000 -7.0711 7.0711
v -60.0000 -7.0711 7.0711
v 60.0000 0.0000 10.0000
v -60.0000 -0.0000 10.0000
v 60.0000 7.0711 7.0711
v -60.0000 7.0711 7.0711
v 60.0000 10.0000 -0.0000
v -60.0000 10.0000 -0.0000
v 60.0000 7.0711 -7.0711
v -60.0000 7.0711 -7.0711
v 60.0000 0.0000 0.5000
v 60.0000 3.0311 2.2500
v 60.0000 3.0311 5.7500
v 60.0000 0.0000 7.5000
v 60.0000 -3.0311 5.7500
v 60.0000 -3.0311 2.2500
v 68.0000 -0.0000 4.0000
v 60.0000 0.0000 -3.5000
v 60.0000 3.0311 -1.7500
v 60.0000 3.0311 1.7500
v 60.0000 0.0000 3.5000
v 60.0000 -3.0311 1.7500
v 60.0000 -3.0311 -1.7500
v 68.0000 -0.0000 -0.0000
v 60.0000 0.0000 -7.5000
v 60.0000 3.0311 -5.7500
v 60.0000 3.0311 -2.2500
v 60.0000 0.0000 -0.5000
v 60.0000 -3.0311 -2.2500
v 60.0000 -3.0311 -5.7500
v 68.0000 -0.0000 -4.0000
v 38.0000 0.0000 17.5000
v -18.0000 -0.0000 17.5000
v 38.0000 -3.8971 19.7500
v -18.0000 -3.8971 19.7500
v 38.0000 -3.8971 24.2500
v -18.0000 -3.8971 24.2500
v 38.0000 0.0000 26.5000
v -18.0000 -0.0000 26.5000
v 38.0000 3.8971 24.2500
v -18.0000 3.8971 24.2500
v 38.0000 3.8971 19.7500
v -18.0000 3.8971 19.7500
v 38.0000 0.0000 20.2000
v 38.0000 1.5588 21.1000
v 38.0000 1.5588 22.9000
v 38.0000 0.0000 23.8000
v 38.0000 -1.5588 22.9000
v 38.0000 -1.5588 21.1000
v 43.0000 -0.0000 22.0000
v 34.0000 3.5000 27.5000
v 6.0000 3.5000 27.5000
v 28.0000 19.0000 27.5000
v 34.0000 3.5000 26.6000
v 6.0000 3.5000 26.6000
v 28.0000 19.0000 26.6000
v 34.0000 -0.4000 17.7000
v 34.0000 0.4000 17.7000
v 34.0000 -0.4000 9.1000
v 34.0000 0.4000 9.1000
v -14.0000 -0.4000 17.7000
v -14.0000 0.4000 17.7000
v -14.0000 -0.4000 9.1000
v -14.0000 0.4000 9.1000
v 33.0000 1.0000 27.6000
v 33.0000 11.0000 27.6000
v 33.0000 1.0000 24.2000
v 33.0000 11.0000 24.2000
v 7.0000 1.0000 27.6000
v 7.0000 11.0000 27.6000
v 7.0000 1.0000 24.2000
v 7.0000 11.0000 24.2000
v 38.0000 0.0000 -26.5000
v -18.0000 -0.0000 -26.5000
v 38.0000 -3.8971 -24.2500
v -18.0000 -3.8971 -24.2500
v 38.0000 -3.8971 -19.7500
v -18.0000 -3.8971 -19.7500
v 38.0000 0.0000 -17.5000
v -18.0000 -0.0000 -17.5000
v 38.0000 3.8971 -19.7500
v -18.0000 3.8971 -19.7500
v 38.0000 3.8971 -24.2500
v -18.0000 3.8971 -24.2500
v 38.0000 0.0000 -23.8000
v 38.0000 1.5588 -22.9000
v 38.0000 1.5588 -21.1000
v 38.0000 0.0000 -20.2000
v 38.0000 -1.5588 -21.1000
v 38.0000 -1.5588 -22.9000
v 43.0000 -0.0000 -22.0000
v 34.0000 3.5000 -27.5000
v 6.0000 3.5000 -27.5000
v 28.0000 19.0000 -27.5000
v 34.0000 3.5000 -28.4000
v 6.0000 3.5000 -28.4000
v 28.0000 19.0000 -28.4000
v 34.0000 -0.4000 -9.1000
v 34.0000 0.4000 -9.1000
v 34.0000 -0.4000 -17.7000
v 34.0000 0.4000 -17.7000
v -14.0000 -0.4000 -9.1000
v -14.0000 0.4000 -9.1000
v -14.0000 -0.4000 -17.7000
v -14.0000 0.4000 -17.7000
v 33.0000 1.0000 -24.2000
v 33.0000 11.0000 -24.2000
v 33.0000 1.0000 -27.6000
v 33.0000 11.0000 -27.6000
v 7.0000 1.0000 -24.2000
v 7.0000 11.0000 -24.2000
v 7.0000 1.0000 -27.6000
v 7.0000 11.0000 -27.6000
f 3 4 2 1
f 5 6 4 3
f 7 8 6 5
f 9 10 8 7
f 11 12 10 9
f 13 14 12 11
f 6 8 10 12 14 16 2 4
f 15 16 14 13
f 1 2 16 15
f 15 13 11 9 7 5 3 1
f 18 23 17
f 19 23 18
f 20 23 19
f 21 23 20
f 22 21 20 19 18 17
f 22 23 21
f 17 23 22
f 25 30 24
f 26 30 25
f 27 30 26
f 28 30 27
f 29 28 27 26 25 24
f 29 30 28
f 24 30 29
f 32 37 31
f 33 37 32
f 34 37 33
f 35 37 34
f 36 35 34 33 32 31
f 36 37 35
f 31 37 36
f 40 41 39 38
f 42 43 41 40
f 44 45 43 42
f 46 47 45 44
f 43 45 47 49 39 41
f 48 49 47 46
f 38 39 49 48
f 48 46 44 42 40 38
f 51 56 50
f 52 56 51
f 53 56 52
f 54 56 53
f 55 54 53 52 51 50
f 55 56 54
f 50 56 55
f 59 58 57
f 60 61 62
f 58 61 60 57
f 59 62 61 58
f 57 60 62 59
f 65 66 64 63
f 69 70 66 65
f 67 68 70 69
f 63 64 68 67
f 63 67 69 65
f 68 64 66 70
f 73 74 72 71
f 77 78 74 73
f 75 76 78 77
f 71 72 76 75
f 71 75 77 73
f 76 72 74 78
f 81 82 80 79
f 83 84 82 81
f 85 86 84 83
f 87 88 86 85
f 84 86 88 90 80 82
f 89 90 88 87
f 79 80 90 89
f 89 87 85 83 81 79
f 92 97 91
f 93 97 92
f 94 97 93
f 95 97 94
f 96 95 94 93 92 91
f 96 97 95
f 91 97 96
f 100 99 98
f 101 102 103
f 99 102 101 98
f 100 103 102 99
f 98 101 103 100
f 106 107 105 104
f 110 111 107 106
f 108 109 111 110
f 104 105 109 108
f 104 108 110 106
f 109 105 107 111
f 114 115 113 112
f 118 119 115 114
f 116 117 119 118
f 112 113 117 116
f 112 116 118 114
f 117 113 115 119
o SkyCarrierLines
usemtl WhiteLine
v 50.0000 9.2100 2.9100
v 50.0000 9.3100 2.9100
v 50.0000 9.2100 2.6900
v 50.0000 9.3100 2.6900
v -50.0000 9.2100 2.9100
v -50.0000 9.3100 2.9100
v -50.0000 9.2100 2.6900
v -50.0000 9.3100 2.6900
v 50.0000 9.2100 1.0100
v 50.0000 9.3100 1.0100
v 50.0000 9.2100 0.7900
v 50.0000 9.3100 0.7900
v -50.0000 9.2100 1.0100
v -50.0000 9.3100 1.0100
v -50.0000 9.2100 0.7900
v -50.0000 9.3100 0.7900
v 50.0000 9.2100 -0.7900
v 50.0000 9.3100 -0.7900
v 50.0000 9.2100 -1.0100
v 50.0000 9.3100 -1.0100
v -50.0000 9.2100 -0.7900
v -50.0000 9.3100 -0.7900
v -50.0000 9.2100 -1.0100
v -50.0000 9.3100 -1.0100
v 50.0000 9.2100 -2.6900
v 50.0000 9.3100 -2.6900
v 50.0000 9.2100 -2.9100
v 50.0000 9.3100 -2.9100
v -50.0000 9.2100 -2.6900
v -50.0000 9.3100 -2.6900
v -50.0000 9.2100 -2.9100
v -50.0000 9.3100 -2.9100
v 40.0000 1.8900 9.3100
v 40.0000 2.1100 9.3100
v 40.0000 1.8900 9.2100
v 40.0000 2.1100 9.2100
v -40.0000 1.8900 9.3100
v -40.0000 2.1100 9.3100
v -40.0000 1.8900 9.2100
v -40.0000 2.1100 9.2100
v 30.1100 -2.2000 9.3100
v 30.1100 2.2000 9.3100
v 30.1100 -2.2000 9.2100
v 30.1100 2.2000 9.2100
v 29.8900 -2.2000 9.3100
v 29.8900 2.2000 9.3100
v 29.8900 -2.2000 9.2100
v 29.8900 2.2000 9.2100
v 0.1100 -2.2000 9.3100
v 0.1100 2.2000 9.3100
v 0.1100 -2.2000 9.2100
v 0.1100 2.2000 9.2100
v -0.1100 -2.2000 9.3100
v -0.1100 2.2000 9.3100
v -0.1100 -2.2000 9.2100
v -0.1100 2.2000 9.2100
v -29.8900 -2.2000 9.3100
v -29.8900 2.2000 9.3100
v -29.8900 -2.2000 9.2100
v -29.8900 2.2000 9.2100
v -30.1100 -2.2000 9.3100
v -30.1100 2.2000 9.3100
v -30.1100 -2.2000 9.2100
v -30.1100 2.2000 9.2100
v 40.0000 1.8900 -9.2100
v 40.0000 2.1100 -9.2100
v 40.0000 1.8900 -9.3100
v 40.0000 2.1100 -9.3100
v -40.0000 1.8900 -9.2100
v -40.0000 2.1100 -9.2100
v -40.0000 1.8900 -9.3100
v -40.0000 2.1100 -9.3100
v 30.1100 -2.2000 -9.2100
v 30.1100 2.2000 -9.2100
v 30.1100 -2.2000 -9.3100
v 30.1100 2.2000 -9.3100
v 29.8900 -2.2000 -9.2100
v 29.8900 2.2000 -9.2100
v 29.8900 -2.2000 -9.3100
v 29.8900 2.2000 -9.3100
v 0.1100 -2.2000 -9.2100
v 0.1100 2.2000 -9.2100
v 0.1100 -2.2000 -9.3100
v 0.1100 2.2000 -9.3100
v -0.1100 -2.2000 -9.2100
v -0.1100 2.2000 -9.2100
v -0.1100 -2.2000 -9.3100
v -0.1100 2.2000 -9.3100
v -29.8900 -2.2000 -9.2100
v -29.8900 2.2000 -9.2100
v -29.8900 -2.2000 -9.3100
v -29.8900 2.2000 -9.3100
v -30.1100 -2.2000 -9.2100
v -30.1100 2.2000 -9.2100
v -30.1100 -2.2000 -9.3100
v -30.1100 2.2000 -9.3100
v 40.1100 9.2100 3.0000
v 40.1100 9.3100 3.0000
v 40.1100 9.2100 -3.0000
v 40.1100 9.3100 -3.0000
v 39.8900 9.2100 3.0000
v 39.8900 9.3100 3.0000
v 39.8900 9.2100 -3.0000
v 39.8900 9.3100 -3.0000
v 20.1100 9.2100 3.0000
v 20.1100 9.3100 3.0000
v 20.1100 9.2100 -3.0000
v 20.1100 9.3100 -3.0000
v 19.8900 9.2100 3.0000
v 19.8900 9.3100 3.0000
v 19.8900 9.2100 -3.0000
v 19.8900 9.3100 -3.0000
v 0.1100 9.2100 3.0000
v 0.1100 9.3100 3.0000
v 0.1100 9.2100 -3.0000
v 0.1100 9.3100 -3.0000
v -0.1100 9.2100 3.0000
v -0.1100 9.3100 3.0000
v -0.1100 9.2100 -3.0000
v -0.1100 9.3100 -3.0000
v -19.8900 9.2100 3.0000
v -19.8900 9.3100 3.0000
v -19.8900 9.2100 -3.0000
v -19.8900 9.3100 -3.0000
v -20.1100 9.2100 3.0000
v -20.1100 9.3100 3.0000
v -20.1100 9.2100 -3.0000
v -20.1100 9.3100 -3.0000
v -39.8900 9.2100 3.0000
v -39.8900 9.3100 3.0000
v -39.8900 9.2100 -3.0000
v -39.8900 9.3100 -3.0000
v -40.1100 9.2100 3.0000
v -40.1100 9.3100 3.0000
v -40.1100 9.2100 -3.0000
v -40.1100 9.3100 -3.0000
v 30.0000 3.9000 22.1000
v 30.0000 3.9800 22.1000
v 30.0000 3.9000 21.9000
v 30.0000 3.9800 21.9000
v -10.0000 3.9000 22.1000
v -10.0000 3.9800 22.1000
v -10.0000 3.9000 21.9000
v -10.0000 3.9800 21.9000
v 33.0000 4.0000 28.5100
v 33.0000 12.0000 28.5100
v 33.0000 4.0000 28.3900
v 33.0000 12.0000 28.3900
v 7.0000 4.0000 28.5100
v 7.0000 12.0000 28.5100
v 7.0000 4.0000 28.3900
v 7.0000 12.0000 28.3900
v 30.0000 0.4200 15.9000
v 30.0000 0.5000 15.9000
v 30.0000 0.4200 10.9000
v 30.0000 0.5000 10.9000
v -10.0000 0.4200 15.9000
v -10.0000 0.5000 15.9000
v -10.0000 0.4200 10.9000
v -10.0000 0.5000 10.9000
v 30.0000 3.9000 -21.9000
v 30.0000 3.9800 -21.9000
v 30.0000 3.9000 -22.1000
v 30.0000 3.9800 -22.1000
v -10.0000 3.9000 -21.9000
v -10.0000 3.9800 -21.9000
v -10.0000 3.9000 -22.1000
v -10.0000 3.9800 -22.1000
v 33.0000 4.0000 -28.3900
v 33.0000 12.0000 -28.3900
v 33.0000 4.0000 -28.5100
v 33.0000 12.0000 -28.5100
v 7.0000 4.0000 -28.3900
v 7.0000 12.0000 -28.3900
v 7.0000 4.0000 -28.5100
v 7.0000 12.0000 -28.5100
v 30.0000 0.4200 -10.9000
v 30.0000 0.5000 -10.9000
v 30.0000 0.4200 -15.9000
v 30.0000 0.5000 -15.9000
v -10.0000 0.4200 -10.9000
v -10.0000 0.5000 -10.9000
v -10.0000 0.4200 -15.9000
v -10.0000 0.5000 -15.9000
f 122 123 121 120
f 126 127 123 122
f 124 125 127 126
f 120 121 125 124
f 120 124 126 122
f 125 121 123 127
f 130 131 129 128
f 134 135 131 130
f 132 133 135 134
f 128 129 133 132
f 128 132 134 130
f 133 129 131 135
f 138 139 137 136
f 142 143 139 138
f 140 141 143 142
f 136 137 141 140
f 136 140 142 138
f 141 137 139 143
f 146 147 145 144
f 150 151 147 146
f 148 149 151 150
f 144 145 149 148
f 144 148 150 146
f 149 145 147 151
f 154 155 153 152
f 158 159 155 154
f 156 157 159 158
f 152 153 157 156
f 152 156 158 154
f 157 153 155 159
f 162 163 161 160
f 166 167 163 162
f 164 165 167 166
f 160 161 165 164
f 160 164 166 162
f 165 161 163 167
f 170 171 169 168
f 174 175 171 170
f 172 173 175 174
f 168 169 173 172
f 168 172 174 170
f 173 169 171 175
f 178 179 177 176
f 182 183 179 178
f 180 181 183 182
f 176 177 181 180
f 176 180 182 178
f 181 177 179 183
f 186 187 185 184
f 190 191 187 186
f 188 189 191 190
f 184 185 189 188
f 184 188 190 186
f 189 185 187 191
f 194 195 193 192
f 198 199 195 194
f 196 197 199 198
f 192 193 197 196
f 192 196 198 194
f 197 193 195 199
f 202 203 201 200
f 206 207 203 202
f 204 205 207 206
f 200 201 205 204
f 200 204 206 202
f 205 201 203 207
f 210 211 209 208
f 214 215 211 210
f 212 213 215 214
f 208 209 213 212
f 208 212 214 210
f 213 209 211 215
f 218 219 217 216
f 222 223 219 218
f 220 221 223 222
f 216 217 221 220
f 216 220 222 218
f 221 217 219 223
f 226 227 225 224
f 230 231 227 226
f 228 229 231 230
f 224 225 229 228
f 224 228 230 226
f 229 225 227 231
f 234 235 233 232
f 238 239 235 234
f 236 237 239 238
f 232 233 237 236
f 232 236 238 234
f 237 233 235 239
f 242 243 241 240
f 246 247 243 242
f 244 245 247 246
f 240 241 245 244
f 240 244 246 242
f 245 241 243 247
f 250 251 249 248
f 254 255 251 250
f 252 253 255 254
f 248 249 253 252
f 248 252 254 250
f 253 249 251 255
f 258 259 257 256
f 262 263 259 258
f 260 261 263 262
f 256 257 261 260
f 256 260 262 258
f 261 257 259 263
f 266 267 265 264
f 270 271 267 266
f 268 269 271 270
f 264 265 269 268
f 264 268 270 266
f 269 265 267 271
f 274 275 273 272
f 278 279 275 274
f 276 277 279 278
f 272 273 277 276
f 272 276 278 274
f 277 273 275 279
f 282 283 281 280
f 286 287 283 282
f 284 285 287 286
f 280 281 285 284
f 280 284 286 282
f 285 281 283 287
f 290 291 289 288
f 294 295 291 290
f 292 293 295 294
f 288 289 293 292
f 288 292 294 290
f 293 289 291 295
f 298 299 297 296
f 302 303 299 298
f 300 301 303 302
f 296 297 301 300
f 296 300 302 298
f 301 297 299 303
